<svg xmlns="http://www.w3.org/2000/svg" viewBox="0 0 22.67 17.81"><defs><style>.cls-1{fill:#f16379;}</style></defs><g id="Layer_2" data-name="Layer 2"><g id="Layer_1-2" data-name="Layer 1"><path class="cls-1" d="M13.38,12.09a8.07,8.07,0,0,0,3.24-2.36,5,5,0,0,0,0-6.5A7.89,7.89,0,0,0,13.38.87,11.35,11.35,0,0,0,8.91,0,11.4,11.4,0,0,0,4.43.87,7.89,7.89,0,0,0,1.19,3.23,5.12,5.12,0,0,0,0,6.48,5,5,0,0,0,.9,9.31a7.36,7.36,0,0,0,2.47,2.24c-.09.2-.17.39-.26.56a3.08,3.08,0,0,1-.32.48c-.12.16-.22.28-.28.37s-.18.21-.33.37-.25.27-.3.32l0,.06-.05.06s0,0-.05.06l-.05.07,0,.07a.19.19,0,0,0,0,.07.25.25,0,0,0,0,.08.28.28,0,0,0,0,.09.4.4,0,0,0,.15.26.37.37,0,0,0,.26.1h0a9.63,9.63,0,0,0,1.08-.2,10.78,10.78,0,0,0,3.52-1.62,12.24,12.24,0,0,0,2.23.2,11.34,11.34,0,0,0,4.47-.86Z"/><path class="cls-1" d="M21.77,12.56a4.93,4.93,0,0,0-.05-5.75,7.41,7.41,0,0,0-2.58-2.26,6.52,6.52,0,0,1-.56,5.14,8.38,8.38,0,0,1-2.42,2.68A11.29,11.29,0,0,1,12.82,14a13.4,13.4,0,0,1-3.91.57c-.26,0-.63,0-1.12-.05a10.6,10.6,0,0,0,6,1.67A12.24,12.24,0,0,0,16,16a10.78,10.78,0,0,0,3.52,1.62,9.43,9.43,0,0,0,1.09.2.34.34,0,0,0,.27-.09.45.45,0,0,0,.17-.27.11.11,0,0,1,0-.09s0,0,0-.08l0-.07,0-.07a.5.5,0,0,0,0-.07s0-.05-.05-.06L20.84,17l-.05-.06-.29-.32a2.83,2.83,0,0,1-.33-.37l-.29-.37a2.46,2.46,0,0,1-.31-.48,5.85,5.85,0,0,1-.26-.56,7.5,7.5,0,0,0,2.46-2.23Z"/></g></g></svg>