<svg xmlns="http://www.w3.org/2000/svg" viewBox="0 0 32 28.91"><defs><style>.cls-1{fill:#fff;opacity:0.5;}</style></defs><title>Asset 1</title><g id="Layer_2" data-name="Layer 2"><g id="Layer_1-2" data-name="Layer 1"><path class="cls-1" d="M31.79,13.83A29.87,29.87,0,0,0,24.52,7c-.45-.27-.91-.56-1.39-.82A15.18,15.18,0,0,0,16,4.26C7.3,4.26.48,13.45.2,13.83a1.07,1.07,0,0,0,0,1.25,30,30,0,0,0,7.28,6.8L1.71,27.65a.56.56,0,0,0,0,.81l.29.28a.58.58,0,0,0,.81,0l6.06-6.06a15,15,0,0,0,7.13,2c8.7,0,15.51-9.19,15.79-9.57A1.07,1.07,0,0,0,31.79,13.83ZM16,22.54a12.64,12.64,0,0,1-5.57-1.42l1.69-1.69A5.26,5.26,0,0,1,11,18.33l-2,2a28.35,28.35,0,0,1-6.63-5.87C4,12.46,9.57,6.36,16,6.36a12.56,12.56,0,0,1,5.56,1.42,16.26,16.26,0,0,1,1.42.8,28,28,0,0,1,6.62,5.88C28,16.46,22.42,22.54,16,22.54Z"/><path class="cls-1" d="M21,10.58a5.31,5.31,0,0,0-1.1-1.12A6.27,6.27,0,0,0,16,8.12a6.34,6.34,0,0,0-6.33,6.34A6.22,6.22,0,0,0,11,18.33a5.26,5.26,0,0,0,1.11,1.1A6.22,6.22,0,0,0,16,20.78a6.33,6.33,0,0,0,6.33-6.32A6.15,6.15,0,0,0,21,10.58Zm-9.2,3.88A4.22,4.22,0,0,1,16,10.23a4.32,4.32,0,0,1,2.38.73l-5.86,5.87A4.14,4.14,0,0,1,11.78,14.46ZM16,18.67a4.17,4.17,0,0,1-2.38-.74l5.86-5.85A4.21,4.21,0,0,1,16,18.67Z"/><path class="cls-1" d="M23,8.58l-2,2a5.31,5.31,0,0,0-1.1-1.12l1.68-1.68A16.26,16.26,0,0,1,23,8.58Z"/><path class="cls-1" d="M30.29,1.27,24.52,7c-.45-.27-.91-.56-1.39-.82l6.05-6a.6.6,0,0,1,.81,0l.3.3A.58.58,0,0,1,30.29,1.27Z"/></g></g></svg>