<svg xmlns="http://www.w3.org/2000/svg" viewBox="0 0 26 26"><defs><style>.cls-1{fill:#f16379;}</style></defs><g id="Layer_2" data-name="Layer 2"><g id="Layer_1-2" data-name="Layer 1"><path class="cls-1" d="M21.89,0H4.11A4.29,4.29,0,0,0,0,4.44V15.67a4.29,4.29,0,0,0,4.11,4.44H9.45l2.88,5.48a.75.75,0,0,0,1.34,0l2.88-5.48h5.34A4.29,4.29,0,0,0,26,15.67V4.44A4.29,4.29,0,0,0,21.89,0Zm2.59,15.67a2.77,2.77,0,0,1-2.59,2.92h-5.8a.76.76,0,0,0-.67.41L13,23.6,10.58,19a.76.76,0,0,0-.67-.41H4.11a2.77,2.77,0,0,1-2.59-2.92V4.44A2.77,2.77,0,0,1,4.11,1.52H21.89a2.77,2.77,0,0,1,2.59,2.92Z"/><path class="cls-1" d="M12.16,8.54a2.92,2.92,0,1,0-4.45,0A4.91,4.91,0,0,0,4.84,13v0a1.37,1.37,0,0,0,1.37,1.37h7.45A1.37,1.37,0,0,0,15,13v0a4.93,4.93,0,0,0-2.87-4.47ZM9.93,5.28A1.39,1.39,0,1,1,8.55,6.67,1.39,1.39,0,0,1,9.93,5.28Zm-3.57,7.6A3.39,3.39,0,0,1,9.75,9.62h.37a3.38,3.38,0,0,1,3.38,3.26Z"/><path class="cls-1" d="M19.59,6.2a.6.6,0,0,0-.3.07L18,7.08a.6.6,0,0,0-.29.54c0,.31.2.63.5.63a.4.4,0,0,0,.25-.09l.3-.18v5.17c0,.32.39.48.79.48s.79-.16.79-.48V6.69c0-.3-.38-.49-.7-.49Z"/></g></g></svg>