<svg xmlns="http://www.w3.org/2000/svg" viewBox="0 0 34 34"><defs><style>.cls-1{opacity:0.5;}.cls-2{fill:#fff;}</style></defs><g id="Layer_2" data-name="Layer 2"><g id="Layer_1-2" data-name="Layer 1"><g class="cls-1"><path class="cls-2" d="M34,17.2V28.69A5.31,5.31,0,0,1,28.69,34H5.31A5.31,5.31,0,0,1,0,28.69V5.31A5.31,5.31,0,0,1,5.31,0H16.87a1.33,1.33,0,0,1,0,2.66H5.31A2.65,2.65,0,0,0,2.66,5.31V28.69a2.65,2.65,0,0,0,2.65,2.65H28.69a2.65,2.65,0,0,0,2.65-2.65V17.2a1.33,1.33,0,1,1,2.66,0ZM18.14,12.34l.08.15c.11.15.34.51.61.87l-4.36,4.36a1.33,1.33,0,1,0,1.88,1.88l2.4-2.41c.06.11.11.21.16.32a3.47,3.47,0,0,1,.36,1.5A6.5,6.5,0,0,1,17,23.35l-.13.11-.13.14-.11.12A6.5,6.5,0,0,1,12.32,26a3.58,3.58,0,0,1-2.11-.7l-.08-.06L10,25.1a5.15,5.15,0,0,1-.56-.5A4,4,0,0,1,8.1,21.75a6.56,6.56,0,0,1,2.25-4.35l.12-.1a1.85,1.85,0,0,0,.14-.14l.1-.12a7.58,7.58,0,0,1,3.35-2.13,1.33,1.33,0,1,0-.63-2.58A10.14,10.14,0,0,0,8.8,15.19l-.06.07-.08.09-.09.08-.07.06a9.1,9.1,0,0,0-3,6.26,6.57,6.57,0,0,0,2.11,4.73,7.11,7.11,0,0,0,.83.73l0,0,.12.1a6.24,6.24,0,0,0,3.77,1.28,9.1,9.1,0,0,0,6.25-3.05l.07-.08.07-.08.09-.08.07-.07A9.08,9.08,0,0,0,21.93,19a6.07,6.07,0,0,0-.63-2.66v0a12.3,12.3,0,0,0-.6-1.08L25,11A1.33,1.33,0,0,0,23.1,9.09l-2.37,2.37-.23-.34a3.47,3.47,0,0,1-.33-1.45,6.56,6.56,0,0,1,2.25-4.34l.12-.1a1.85,1.85,0,0,0,.14-.14l.1-.12a6.56,6.56,0,0,1,4.35-2.25,3.55,3.55,0,0,1,2.11.71l.07.06.13.1c.19.15.38.31.57.49a4,4,0,0,1,1.33,2.86,6.5,6.5,0,0,1-2.24,4.34l-.13.11-.13.13-.11.13a7.22,7.22,0,0,1-3.44,2.07,1.33,1.33,0,0,0,.28,2.63l.28,0a9.76,9.76,0,0,0,4.79-2.83.23.23,0,0,0,.07-.07l.08-.08.08-.08a.23.23,0,0,0,.07-.07A9.08,9.08,0,0,0,34,6.94a6.54,6.54,0,0,0-2.12-4.73,7.94,7.94,0,0,0-.82-.73l0,0-.12-.1A6.28,6.28,0,0,0,27.13.07a9.1,9.1,0,0,0-6.26,3.05l-.06.07-.08.09-.09.08-.07.06a9.08,9.08,0,0,0-3.05,6.26,6.2,6.2,0,0,0,.62,2.66Z"/></g></g></g></svg>