<svg xmlns="http://www.w3.org/2000/svg" viewBox="0 0 33.85 33.85"><defs><style>.cls-1{opacity:0.5;}.cls-2{fill:#fff;}</style></defs><g id="Layer_2" data-name="Layer 2"><g id="Layer_1-2" data-name="Layer 1"><g class="cls-1"><path class="cls-2" d="M29.09,10.65a9.68,9.68,0,0,1-2.68.74,4.7,4.7,0,0,0,2.05-2.58,9.23,9.23,0,0,1-3,1.13,4.66,4.66,0,0,0-8.07,3.19,4.59,4.59,0,0,0,.11,1.06A13.19,13.19,0,0,1,7.93,9.31a4.74,4.74,0,0,0-.64,2.36,4.67,4.67,0,0,0,2.07,3.88A4.75,4.75,0,0,1,7.25,15v0A4.7,4.7,0,0,0,11,19.61a4.8,4.8,0,0,1-1.22.15,4.24,4.24,0,0,1-.88-.08,4.7,4.7,0,0,0,4.35,3.25,9.36,9.36,0,0,1-5.78,2,8.32,8.32,0,0,1-1.12-.07A13.1,13.1,0,0,0,13.5,27,13.18,13.18,0,0,0,26.77,13.68c0-.21,0-.41,0-.61a9.1,9.1,0,0,0,2.33-2.42Z"/></g><g class="cls-1"><path class="cls-2" d="M30.77,2a1.08,1.08,0,0,1,1.08,1.09V30.77a1.08,1.08,0,0,1-1.08,1.08H3.09A1.08,1.08,0,0,1,2,30.77V3.09A1.09,1.09,0,0,1,3.09,2H30.77m0-2H3.09A3.09,3.09,0,0,0,0,3.09V30.77a3.08,3.08,0,0,0,3.09,3.08H30.77a3.08,3.08,0,0,0,3.08-3.08V3.09A3.08,3.08,0,0,0,30.77,0Z"/></g></g></g></svg>