<svg xmlns="http://www.w3.org/2000/svg" viewBox="0 0 32 20.4"><defs><style>.cls-1{opacity:0.7;}.cls-2{fill:#fff;}</style></defs><title>Asset 5</title><g id="Layer_2" data-name="Layer 2"><g id="Layer_1-2" data-name="Layer 1"><g class="cls-1"><path class="cls-2" d="M16,20.4C7.3,20.4.49,11.21.2,10.82a1.05,1.05,0,0,1,0-1.24C.49,9.18,7.3,0,16,0S31.51,9.18,31.8,9.58a1.05,1.05,0,0,1,0,1.24C31.51,11.21,24.7,20.4,16,20.4ZM2.4,10.2c1.64,2,7.19,8.09,13.6,8.09s12-6.1,13.6-8.09C28,8.2,22.41,2.11,16,2.11S4,8.2,2.4,10.2Z"/><path class="cls-2" d="M16,16.53a6.33,6.33,0,1,1,6.33-6.33A6.34,6.34,0,0,1,16,16.53ZM16,6a4.22,4.22,0,1,0,4.22,4.22A4.22,4.22,0,0,0,16,6Z"/></g></g></g></svg>