<svg xmlns="http://www.w3.org/2000/svg" xmlns:xlink="http://www.w3.org/1999/xlink" viewBox="0 0 20 20"><defs><style>.cls-1{fill:none;}.cls-2{clip-path:url(#clip-path);}.cls-3{fill:#f16379;}</style><clipPath id="clip-path" transform="translate(0 0)"><rect class="cls-1" width="20" height="20"/></clipPath></defs><g id="Layer_2" data-name="Layer 2"><g id="Layer_1-2" data-name="Layer 1"><g class="cls-2"><path class="cls-3" d="M19.77,18.67,14.13,13A8,8,0,1,0,13,14.13l5.65,5.64a.78.78,0,0,0,1.1-1.1ZM12.5,12.5a6.41,6.41,0,1,1,0-9.06,6.41,6.41,0,0,1,0,9.06Z" transform="translate(0 0)"/></g><path class="cls-3" d="M11.79,7.19h-3V4.14a.78.78,0,0,0-1.56,0V7.19H4.14a.78.78,0,1,0,0,1.56H7.19v3a.78.78,0,1,0,1.56,0v-3h3a.78.78,0,0,0,0-1.56Z" transform="translate(0 0)"/></g></g></svg>