<svg xmlns="http://www.w3.org/2000/svg" viewBox="0 0 33.85 33.85"><defs><style>.cls-1{opacity:0.5;}.cls-2{fill:#fff;}</style></defs><g id="Layer_2" data-name="Layer 2"><g id="Layer_1-2" data-name="Layer 1"><g class="cls-1"><path class="cls-2" d="M29.89,0H4A4,4,0,0,0,0,4V29.89a4,4,0,0,0,4,4H29.89a4,4,0,0,0,4-4V4a4,4,0,0,0-4-4Zm1.32,29.89a1.32,1.32,0,0,1-1.32,1.32H22.35V20.43h4.08l.68-4.1H22.35V13.49a2,2,0,0,1,2-2H27V7.41H24.33a6.08,6.08,0,0,0-6.08,6.09v2.83h-4v4.1h4V31.21H4a1.33,1.33,0,0,1-1.33-1.32V4A1.34,1.34,0,0,1,4,2.64H29.89A1.33,1.33,0,0,1,31.21,4Z"/></g></g></g></svg>