<svg xmlns="http://www.w3.org/2000/svg" viewBox="0 0 23.93 15.25"><defs><style>.cls-1{fill:#f16379;}</style></defs><g id="Layer_2" data-name="Layer 2"><g id="Layer_1-2" data-name="Layer 1"><path class="cls-1" d="M12,15.25C5.46,15.25.37,8.38.15,8.09a.8.8,0,0,1,0-.93C.37,6.87,5.46,0,12,0s11.6,6.87,11.81,7.16a.77.77,0,0,1,0,.93C23.56,8.38,18.47,15.25,12,15.25ZM1.79,7.62C3,9.11,7.17,13.67,12,13.67s8.94-4.55,10.17-6c-1.23-1.5-5.38-6-10.17-6S3,6.13,1.79,7.62Z"/><path class="cls-1" d="M12,12.36a4.74,4.74,0,1,1,4.73-4.74A4.74,4.74,0,0,1,12,12.36Zm0-7.89a3.16,3.16,0,1,0,3.16,3.15A3.15,3.15,0,0,0,12,4.47Z"/></g></g></svg>