<svg xmlns="http://www.w3.org/2000/svg" xmlns:xlink="http://www.w3.org/1999/xlink" viewBox="0 0 26.99 27.77"><defs><style>.cls-1{fill:none;}.cls-2{clip-path:url(#clip-path);}.cls-3{fill:#f37063;}</style><clipPath id="clip-path" transform="translate(0 -0.02)"><rect class="cls-1" width="27" height="27.85"/></clipPath></defs><g id="Layer_2" data-name="Layer 2"><g id="Layer_1-2" data-name="Layer 1"><g class="cls-2"><path class="cls-3" d="M26.18,18.89a3.45,3.45,0,0,0,.81-2.3,3.58,3.58,0,0,0-.76-2A3.09,3.09,0,0,0,25.5,11c-.93-.84-2.49-1.22-4.67-1.11a18.86,18.86,0,0,0-2.85.36h0c-.29.05-.6.12-.91.19a10.19,10.19,0,0,1,.73-3.38c.81-2.47.76-4.36-.16-5.63A3.67,3.67,0,0,0,14.68,0a1.45,1.45,0,0,0-1.12.51,3.89,3.89,0,0,0-.49,2.77c-.77,2.05-2.91,7.09-4.73,8.49l-.09.08a6.2,6.2,0,0,0-1.14,1.71A2.48,2.48,0,0,0,6,13.29H2.42A2.42,2.42,0,0,0,0,15.71v9.43a2.42,2.42,0,0,0,2.42,2.42H6a2.47,2.47,0,0,0,1.39-.44l1.37.16a57.55,57.55,0,0,0,7.74.42c.69.05,1.34.08,1.94.08a13.19,13.19,0,0,0,2.7-.24,5.07,5.07,0,0,0,3.61-2.24,3.53,3.53,0,0,0,.39-2.23,3.69,3.69,0,0,0,1.32-3,3.88,3.88,0,0,0-.24-1.17ZM2.42,26a.85.85,0,0,1-.85-.85V15.7a.85.85,0,0,1,.85-.85H6a.86.86,0,0,1,.85.85v9.44A.85.85,0,0,1,6,26H2.42Zm22.27-7.78a.79.79,0,0,0-.1.95,2.42,2.42,0,0,1,.27,1,2.33,2.33,0,0,1-1.09,2,.77.77,0,0,0-.27.89,2,2,0,0,1-.16,1.5A3.62,3.62,0,0,1,20.78,26a15.64,15.64,0,0,1-4.24.12h-.08a55.15,55.15,0,0,1-7.55-.41h0l-.59-.07a2.1,2.1,0,0,0,0-.51V15.7A2.46,2.46,0,0,0,8.26,15a5,5,0,0,1,1.08-2C12,10.92,14.5,4,14.61,3.65a.65.65,0,0,0,0-.39,3.76,3.76,0,0,1,.08-1.69,2.11,2.11,0,0,1,1.64.79c.59.82.57,2.28-.07,4.22-1,2.95-1.06,4.51-.29,5.2a1.26,1.26,0,0,0,1.27.22c.35-.08.69-.15,1-.2l.07,0c1.79-.39,5-.63,6.09.38a1.68,1.68,0,0,1,.2,2.12.77.77,0,0,0,.14,1,2.26,2.26,0,0,1,.64,1.36,2.15,2.15,0,0,1-.73,1.56Z" transform="translate(0 -0.02)"/></g></g></g></svg>