<svg xmlns="http://www.w3.org/2000/svg" xmlns:xlink="http://www.w3.org/1999/xlink" viewBox="0 0 19.51 19.51"><defs><style>.cls-1{fill:none;}.cls-2{clip-path:url(#clip-path);}.cls-3{fill:url(#New_Gradient_Swatch_2);}.cls-4{fill:url(#New_Gradient_Swatch_2-2);}</style><clipPath id="clip-path" transform="translate(0 0)"><rect class="cls-1" width="19.51" height="19.51"/></clipPath><linearGradient id="New_Gradient_Swatch_2" y1="9.76" x2="19.51" y2="9.76" gradientUnits="userSpaceOnUse"><stop offset="0" stop-color="#f37063"/><stop offset="1" stop-color="#ef5394"/></linearGradient><linearGradient id="New_Gradient_Swatch_2-2" x1="18.11" y1="2.2" x2="-9.25" y2="16.96" xlink:href="#New_Gradient_Swatch_2"/></defs><g id="Layer_2" data-name="Layer 2"><g id="Layer_1-2" data-name="Layer 1"><g class="cls-2"><path class="cls-3" d="M19.29,18.21l-5.5-5.5a7.78,7.78,0,1,0-1.08,1.08l5.5,5.5a.76.76,0,0,0,1.08-1.08Zm-7.1-6a6.25,6.25,0,1,1,0-8.84,6.25,6.25,0,0,1,0,8.84Z" transform="translate(0 0)"/></g><path class="cls-4" d="M11.51,7H4a.76.76,0,0,0-.76.76A.77.77,0,0,0,4,8.54h7.47a.77.77,0,0,0,.76-.77A.76.76,0,0,0,11.51,7Z" transform="translate(0 0)"/></g></g></svg>